<?xml version="1.0" encoding="utf-8"?>
<!-- Generator: Adobe Illustrator 16.0.0, SVG Export Plug-In . SVG Version: 6.00 Build 0)  -->
<!DOCTYPE svg PUBLIC "-//W3C//DTD SVG 1.1//EN" "http://www.w3.org/Graphics/SVG/1.1/DTD/svg11.dtd">
<svg version="1.1" id="Capa_1" xmlns="http://www.w3.org/2000/svg" xmlns:xlink="http://www.w3.org/1999/xlink" x="0px" y="0px"
	 width="800px" height="800px" viewBox="0 0 800 800" enable-background="new 0 0 800 800" xml:space="preserve">
<circle fill="#62C7F1" cx="400" cy="400" r="367.084"/>
<g>
	<path fill="none" d="M48.018,295.461c-9.878,33.148-15.193,68.25-15.193,104.563c0,52.216,10.956,101.917,30.688,146.927
		C43.834,501.955,32.917,452.253,32.917,400C32.917,363.68,38.193,328.593,48.018,295.461z"/>
	<path fill="none" d="M448.537,763.896c-0.449,0.06-0.897,0.122-1.348,0.18C447.639,764.019,448.088,763.956,448.537,763.896z"/>
	<path fill="none" d="M308.266,755.528c29.307,7.559,60.021,11.58,91.656,11.58c15.121,0,30.029-0.928,44.675-2.714
		c-14.618,1.771-29.5,2.689-44.597,2.689C368.325,767.084,337.586,763.072,308.266,755.528z"/>
	<path fill="none" d="M62.162,244.909l6.677-8.116l-6.704,8.141v11.317c0.009-0.021,0.018-0.042,0.027-0.063V244.909z"/>
	<path fill="none" d="M48.132,295.074c0.192-0.646,0.392-1.288,0.588-1.932C48.523,293.785,48.325,294.428,48.132,295.074z"/>
	<path fill="none" d="M453.008,763.278c-0.146,0.021-0.294,0.043-0.44,0.064C452.714,763.321,452.861,763.3,453.008,763.278z"/>
	<path fill="#FFFFFF" d="M799.87,395.898c-0.105-11.707-0.701-23.306-1.798-34.752c-3.725-38.125-12.813-74.662-26.511-108.906
		c-0.988-2.526-1.925-5.117-2.994-7.643c-18.202-42.996-43.776-82.137-75.027-115.926c-2.031-2.212-4.113-4.375-6.197-6.536
		c-5.938-6.132-11.953-12.137-18.281-17.866C597.968,39.518,503.504,0,400,0C295.626,0,200.483,40.248,129.181,105.951
		c-16.615,15.313-31.874,32.059-45.742,49.949C31.197,223.502,0,308.165,0,400c0,220.545,179.441,400,400,400
		c155.158,0,289.844-88.854,356.146-218.307c14.165-27.629,25.209-57.135,32.654-88.072c1.876-7.813,3.541-15.729,4.949-23.725
		c4.036-22.721,6.249-46.082,6.249-69.921C799.946,398.646,799.87,397.279,799.87,395.898z M453.008,763.278
		c-0.146,0.021-0.294,0.043-0.44,0.064c-1.341,0.192-2.685,0.376-4.03,0.554c-0.449,0.06-0.898,0.122-1.348,0.18
		c-0.862,0.111-1.728,0.214-2.593,0.318c-14.646,1.786-29.554,2.714-44.675,2.714c-31.636,0-62.349-4.021-91.656-11.58
		c-109.976-28.294-200.01-106.27-244.753-208.577c-19.732-45.01-30.688-94.711-30.688-146.927c0-36.313,5.315-71.415,15.193-104.563
		c0.038-0.129,0.076-0.258,0.114-0.387c0.193-0.646,0.392-1.289,0.588-1.932c3.827-12.597,8.311-24.908,13.416-36.891v-11.317
		l6.704-8.141l5.99-7.281C136.235,112.633,258.807,32.917,400,32.917c202.734,0,367.084,164.349,367.084,367.083
		C767.084,584.732,630.624,737.588,453.008,763.278z"/>
	<polygon fill="none" stroke="#000000" stroke-miterlimit="10" points="266.886,238.268 261.365,238.75 259.543,246.758 
		271.223,246.758 276.483,241.498 276.483,234.375 268.006,235.52 	"/>
	<path fill="none" stroke="#000000" stroke-miterlimit="10" d="M684.633,631.43H672.55v-24.424l-14.011-18.854v-29.351
		l-10.703-10.651l-0.91-12.188l13.592-25.937l-25.782-45.455l3.046-30.835l-23.148-2.396l-8.544-8.542h-15.573l-7.914,7.318h-27.448
		l-0.912,2.423h-15.283l-35.039-39.948l0.298-31.119l5.782-2.136l2.161-11.913h-8.241l-3.362-12.514l40.562-29.284v-20.741
		l19.845-11.041l8.047,0.807h16.328l12.787-6.863l41.196-3.189v21.069l32.526,8.228l6.384,4.557h5.935v-11.458l18.749-1.811
		l17.866,13.269h29.272l2.082-1.869c-2.866-9.896-6.199-19.569-9.923-29.088l-19.141,0.312l-9.609-10.535l-1.797-16.927
		l-9.844,5.366l-5.264,20.69l-14.191-15.091l-0.547-14.271l-13.749-11.783l-5.027-5.039h-15.911l5.052,14.152l19.114,10.664
		l3.333,3.53l-4.167,2.069l0.209,11.211l-9.322,3.893l-7.97-1.771l-4.999-7.031l12.917,0.69l3.49-4.725l-28.645-19.323l-2.188-8.244
		l-11.64,10.534l-11.799-2.423l-17.971,23.359l-3.542,9.141l-11.482,1.042l-17.057,0.103l-10.155-4.74l-2.97-20.195l3.674-9.622
		l17.265-3.788l18.854,3.788l2.345-10.456l-8.022-1.887l2.737-16.25l18.957-2.956l13.282-18.776l13.697-2.291l12.37,1.836h4.584
		l-2.526-17.617l-15.026,6.081l-5.285-13.15l-8.726-1.224l-1.665-9.01l7.158-7.76l16.954-6.639l4.323-7.787
		c-64.688-57.018-149.546-91.705-242.345-91.705c-80.559,0-155.064,26.132-215.677,70.285l18.502-0.155l8.269,4.557l15.521,3.36
		l1.224,6.107l24.727,0.913l-3.333-7.917l-21.981-0.625l5.17-4.868l-1.784-5.821h-19.832l21.654-16.16h20.741l9.869,13.491
		l16.188,0.91l9.725-9.465l7.332,3.658l-13.437,13.112c0,0-18.581,0.325-17.709,0.325c0.964,0,1.576,12.8,1.576,12.8l22.582-0.621
		l2.448-6.107l15.546-0.91l1.822-9.153l-9.154-1.538l3.046-8.241l7.005-2.136l24.426,1.199l-13.464,12.213l2.161,9.44l14.023,2.136
		l-0.912-17.097l13.451-7.004l23.803-2.748l34.425,15.248v13.125l10.99,2.748l-5.47,10.366h-15.572l-4.584,11.902l-35.572-8.398
		l27.942-14.883l-10.638-9.037l-24.101,3.035l-2.109,2.188l-0.078-0.027l-0.404,0.534l-6.928,7.201l-11.471,0.964l0.912,5.702
		l3.998,1.654l-0.156,1.887l-9.338,1.342l-0.69,5.404l-8.945,0.481l-1.613-10.768l-16.004,4.884l-32.749,19.141l3.674,13.464
		l9.181,5.978l18.294,2.54v20.793l8.423-1.354l7.814-16.236l19.438-6.173v-24.921l10.795-8.19l26.197,6.16l-1.876,16.485h7.044
		l19.233-9.454l0.924,21.667l13.997,8.528l-0.612,12.825l-13.385,4.557l0.887,4.245l16.158,7.356l-0.327,8.829l-4.659,0.403
		c-0.052-0.168-0.052-0.247-0.052-0.247l-20.431-6.262l-0.845-6.563h-0.04l5.976-4.075v-5.978l-6.393-1.627l-1.601,5.521
		l-11.251,1.73l-1.121-0.366v0.547l-3.894,0.599l-3.178-6.406l-3.71-1.627h-8.021l-3.658,2.981v6.641l6.912,2.212l6.771,0.964
		l-1.524,0.664l-6.186,6.863l-2.722-3.411l-5.95-1.576l-16.264,15.299l2.109,1.733l-23.998,13.307l-22.566,23.503l-1.576,10.442
		l-22.645,14.883l-11.222,11.29l1.25,22.552l-15.573-7.25l0.143-13.204h-43.307l-22.409,11.368l-9.726,17.942l-3.893,14.244
		l6.314,13.802l17.655,2.161l28.086-18.762l2.447,9.297l-8.528,16.185l21.354,3.658l2.136,33.009l29.283,4.998l18.608-21.524
		l22.591,4.583l7.917,11.041l21.679-1.275l0.611-6.405l11.875,5.794l13.437,21.028l23.165,0.325l8.541,14.961l1.197,18.294
		l25.65,9.752l32.318,0.325l9.467,15.56l14.322,4.583l-2.656,12.249c3.896-5.883,6.171-12.928,6.171-20.497
		c0-20.528-16.698-37.231-37.225-37.231c-0.903,0-1.786,0.074-2.674,0.137v-5.393c0.884-0.054,1.775-0.092,2.674-0.092
		c23.479,0,42.577,19.101,42.577,42.579c0,17.621-10.766,32.759-26.063,39.22l-1.355,1.71l-1.27,12.187h1.115v7.132h-1.857
		l-2.585,24.82l-14.181,11.252l-21.066-0.623l-7.019,12.188l5.183,22.891l-22.854,29.272l-7.317,13.462l-21.809,10.472l-14.35,2.188
		l-0.585,6.094l10.077,2.892l-1.224,6.536l-9.013,8.698l5.47,6.872l10.846,0.314l-0.612,8.385l-2.851,8.257l-0.938,6.693
		l16.056,13.513l-2.134,7.056l-21.812-0.441l-21.731-18.984l-16.952-29.74l2.394-28.75l-12.798-17.111l5.142-28.958l-7.605-2.16
		v-62.813c0,0-21.354-16.198-22.553-16.198c-1.25,0-11.314-2.71-11.314-2.71l-2.123-11.924l-27.761-34.741l2.772-12.524l0.874-20.43
		l19.231-13.413l-2.772-22.877l-28.033-2.109l-21.965-25.038l-15.573-4.232l-10.05-1.849l1.197-9.14l-12.801-1.811v5.168
		l-32.031-7.917l-12.852-19.713l5.223-9.57l-20.287-29.57l-3.49-21.681h-8.242l2.773,21.042l13.997,21.654l-1.524,8.555
		l-11.915-1.811l-14.647-24.96v-29.037l-15.221-7.343V256.38c0.008-0.019,0.017-0.038,0.025-0.057v-0.135
		c-0.009,0.021-0.018,0.042-0.027,0.063v0.127c-5.103,11.942-9.584,24.212-13.416,36.764c-0.196,0.644-0.396,1.286-0.588,1.932
		c-0.039,0.129-0.075,0.258-0.114,0.387C38.193,328.593,32.917,363.68,32.917,400c0,52.253,10.918,101.955,30.596,146.951
		c44.815,102.223,134.904,180.247,244.753,208.577c29.321,7.544,60.059,11.556,91.734,11.556c15.097,0,29.979-0.918,44.597-2.689
		c0.864-0.104,1.73-0.207,2.593-0.318c0.45-0.058,0.898-0.12,1.348-0.18c1.345-0.179,2.689-0.36,4.03-0.554
		c0.146-0.021,0.294-0.043,0.44-0.064C546.046,749.74,627.866,701.17,684.633,631.43z M568.855,162.994l3.333-5.182l12.083-2.421
		l3.019,14.634l6.408,10.377l4.27,4.908l7.763,3.01l-7.292,8.724l-14.167,1.354h-10.678l1.196-12.63l8.855-1.876l-0.73-5.911
		l-8.279-5.209l-5.78-3.972V162.994z M549.01,185.898l7.37-11.731l9.871-2.293l7.028,3.035l-0.623,7.917l-15.077,10.703h-8.569
		V185.898z M349.599,231.042l-7.646,0.639l0.39-5.301l3.452-4.27l4.584,3.606L349.599,231.042z M376.378,221.68l-5.233,0.457
		l-1.042,5.039l-3.996,2.513l-6.446,0.533c-0.22-1.524-0.377-2.669-0.377-2.669h-2.513v-5.442h10.535l2.188-5.599l4.138-0.054
		l4.792,0.991L376.378,221.68z"/>
	<path fill="none" stroke="#000000" stroke-miterlimit="10" d="M266.89,231.9l6.823-1.289l5.521-3.541v-7.305v-0.002H266.89
		C266.89,220.911,266.89,231.9,266.89,231.9z"/>
	<path fill="none" stroke="#000000" stroke-miterlimit="10" d="M75.271,228.984l15.21-18.502l-0.56-6.666
		c-5.218,8.181-10.097,16.547-14.65,25.159l0.014-0.018C75.28,228.966,75.276,228.976,75.271,228.984z"/>
	<polygon fill="none" stroke="#000000" stroke-miterlimit="10" points="273.047,208.059 273.047,216.784 280.585,214.933 	"/>
	<polygon fill="none" stroke="#000000" stroke-miterlimit="10" points="233.44,190.937 236.408,179.257 227.709,177.175 
		218.138,181.756 224.064,193.894 	"/>
	<polygon fill="none" stroke="#000000" stroke-miterlimit="10" points="269.127,216.784 269.127,209.233 265.951,209.233 
		265.951,204.885 251.523,204.885 240.989,209.233 238.931,214.48 247.2,216.784 	"/>
	<polygon fill="none" stroke="#000000" stroke-miterlimit="10" points="259.545,219.766 247.424,219.766 238.96,228.906 
		237.58,238.06 243.972,241.498 	"/>
	<path fill="none" stroke="#000000" stroke-miterlimit="10" d="M205.795,138.321c-0.704,0-8.723,1.367-8.723,1.367l-12.828,3.646
		l3.438,4.14l18.112-1.145C205.795,146.33,206.458,138.321,205.795,138.321z"/>
	<polygon fill="none" stroke="#000000" stroke-miterlimit="10" points="184.271,121.847 184.271,121.85 184.271,121.847 
		184.242,121.847 184.242,129.152 202.29,129.152 206.08,124.14 206.08,118.425 192.995,118.425 192.266,121.172 184.271,121.172 	
		"/>
	<polygon fill="none" stroke="#000000" stroke-miterlimit="10" points="297.045,238.996 297.045,231.9 283.1,227.76 282.189,227.76 
		282.189,234.375 285.366,238.996 	"/>
	<path fill="none" stroke="#000000" stroke-miterlimit="10" d="M757.136,315.624l-1.145,1.367l2.629,4.884
		C758.125,319.791,757.656,317.708,757.136,315.624z"/>
	<path fill="none" stroke="#000000" stroke-miterlimit="10" d="M652.55,179.463l25.209,0.249l7.188-10.716
		c-5.78-7.123-11.823-13.983-18.126-20.651l-0.051,17.866l-15.779,8.006L652.55,179.463z"/>
	<path fill="none" stroke="#000000" stroke-miterlimit="10" d="M735.494,251.418c-2.684-6.105-5.574-12.083-8.621-17.994
		l-2.29,2.604v-0.002h-0.027v16.212l7.109-0.977L735.494,251.418z"/>
	<polygon fill="none" stroke="#000000" stroke-miterlimit="10" points="295.234,222.11 289.635,218.62 286.33,222.11 
		290.754,225.822 	"/>
	<g>
		<path fill="#89C540" d="M62.162,256.188c3.87-9.079,8.093-17.971,12.656-26.656l-5.979,7.261l-6.677,8.116V256.188z"/>
		<path fill="#89C540" d="M74.829,229.512l-5.99,7.281l5.979-7.261C74.821,229.525,74.825,229.519,74.829,229.512z"/>
		<polygon fill="#89C540" points="447.349,532.025 446.233,532.025 445.491,539.157 447.349,539.157 		"/>
		<path fill="#89C540" d="M448.858,518.129c15.298-6.461,26.063-21.599,26.063-39.22c0-23.479-19.099-42.579-42.577-42.579
			c-0.898,0-1.79,0.038-2.674,0.092v5.393c0.888-0.063,1.771-0.137,2.674-0.137c20.526,0,37.225,16.703,37.225,37.231
			c0,7.569-2.275,14.614-6.171,20.497l-0.116,0.536L448.858,518.129z"/>
		<polygon fill="#89C540" points="582.915,177.982 583.646,183.893 574.79,185.769 573.594,198.398 584.271,198.398 
			598.438,197.045 605.73,188.321 597.968,185.311 593.698,180.403 587.29,170.025 584.271,155.391 572.188,157.812 
			568.855,162.994 568.855,168.801 574.636,172.773 		"/>
		<polygon fill="#89C540" points="572.656,182.826 573.279,174.909 566.251,171.874 556.38,174.167 549.01,185.898 549.01,193.528 
			557.579,193.528 		"/>
		<path fill="#89C540" d="M369.493,216.511l-2.188,5.599h-10.535v5.442h2.513c0,0,0.157,1.146,0.377,2.669l6.446-0.533l3.996-2.513
			l1.042-5.039l5.233-0.457l2.045-4.232l-4.792-0.991L369.493,216.511z"/>
		<polygon fill="#89C540" points="342.343,226.38 341.953,231.681 349.599,231.042 350.379,225.716 345.795,222.11 		"/>
		<path fill="#89C540" d="M447.189,764.076c-0.862,0.111-1.729,0.214-2.593,0.318C445.462,764.29,446.327,764.188,447.189,764.076z"
			/>
		<path fill="#89C540" d="M435.909,532.025h10.324l1.27-12.187l1.355-1.71c-4.04,1.707-8.392,2.816-12.949,3.196V532.025z"/>
		<path fill="#89C540" d="M48.018,295.461c0.039-0.129,0.075-0.258,0.114-0.387C48.094,295.203,48.056,295.332,48.018,295.461z"/>
		<path fill="#89C540" d="M452.567,763.343c-1.341,0.193-2.686,0.375-4.03,0.554C449.883,763.719,451.227,763.535,452.567,763.343z"
			/>
		<path fill="#89C540" d="M62.135,256.251c-5.105,11.983-9.588,24.293-13.416,36.891c3.832-12.552,8.313-24.822,13.416-36.764
			V256.251z"/>
		<path fill="#89C540" d="M400,32.917c-141.193,0-263.765,79.716-325.171,196.596l0.442-0.538
			c4.553-8.612,9.433-16.978,14.65-25.159l0.56,6.666l-15.21,18.502c-4.72,8.939-9.144,18.017-13.109,27.369v-0.03
			c-0.008,0.019-0.017,0.038-0.025,0.057v20.872l15.221,7.343v29.037l14.647,24.96l11.915,1.811l1.524-8.555l-13.997-21.654
			l-2.773-21.042h8.242l3.49,21.681l20.287,29.57l-5.223,9.57l12.852,19.713l32.031,7.917v-5.168l12.801,1.811l-1.197,9.14
			l10.05,1.849l15.573,4.232l21.965,25.038l28.033,2.109l2.772,22.877l-19.231,13.413l-0.874,20.43l-2.772,12.524l27.761,34.741
			l2.123,11.924c0,0,10.064,2.71,11.314,2.71c1.199,0,22.553,16.198,22.553,16.198v62.813l7.605,2.16l-5.142,28.958l12.798,17.111
			l-2.394,28.75l16.952,29.74l21.731,18.984l21.812,0.441l2.134-7.056l-16.056-13.513l0.938-6.693l2.851-8.257l0.612-8.385
			l-10.846-0.314l-5.47-6.872l9.013-8.698l1.224-6.536l-10.077-2.892l0.585-6.094l14.35-2.188l21.809-10.472l7.317-13.462
			l22.854-29.272l-5.183-22.891l7.019-12.188l21.066,0.623l14.181-11.252l2.585-24.82h-28.149v-7.132h13.222v-10.586v-3.383v-2.01
			c0.594,0.031,1.179,0.092,1.781,0.092c12.958,0,24.385-6.66,31.054-16.732l2.656-12.249l-14.322-4.583l-9.467-15.56l-32.318-0.325
			l-25.65-9.752l-1.197-18.294l-8.541-14.961l-23.165-0.325l-13.437-21.028l-11.875-5.794l-0.611,6.405l-21.679,1.275l-7.917-11.041
			l-22.591-4.583l-18.608,21.524l-29.283-4.998l-2.136-33.009l-21.354-3.658l8.528-16.185l-2.447-9.297l-28.086,18.762
			l-17.655-2.161l-6.314-13.802l3.893-14.244l9.726-17.942l22.409-11.368h43.307l-0.143,13.204l15.573,7.25l-1.25-22.552
			l11.222-11.29l22.645-14.883l1.576-10.442l22.566-23.503l23.998-13.307l-2.109-1.733l16.264-15.299l5.95,1.576l2.722,3.411
			l6.186-6.863l1.524-0.664l-6.771-0.964l-6.912-2.212v-6.641l3.658-2.981h8.021l3.71,1.627l3.178,6.406l3.894-0.599v-0.547
			l1.121,0.366l11.251-1.73l1.601-5.521l6.393,1.627v5.978l-5.976,4.075h0.04l0.845,6.563l20.431,6.262c0,0,0,0.079,0.052,0.247
			l4.659-0.403l0.327-8.829l-16.158-7.356l-0.887-4.245l13.385-4.557l0.612-12.825l-13.997-8.528l-0.924-21.667l-19.233,9.454
			h-7.044l1.876-16.485l-26.197-6.16l-10.795,8.19v24.921l-19.438,6.173l-7.814,16.236l-8.423,1.354v-20.793l-18.294-2.54
			l-9.181-5.978l-3.674-13.464l32.749-19.141l16.004-4.884l1.613,10.768l8.945-0.481l0.69-5.404l9.338-1.342l0.156-1.887
			l-3.998-1.654l-0.912-5.702l11.471-0.964l6.928-7.201l0.404-0.534l0.078,0.027l2.109-2.188l24.101-3.035l10.638,9.037
			l-27.942,14.883l35.572,8.398l4.584-11.902h15.572l5.47-10.366l-10.99-2.748v-13.125L373.476,86.88l-23.803,2.748l-13.451,7.004
			l0.912,17.097l-14.023-2.136l-2.161-9.44l13.464-12.213l-24.426-1.199l-7.005,2.136l-3.046,8.241l9.154,1.538l-1.822,9.153
			l-15.546,0.91l-2.448,6.107l-22.582,0.621c0,0-0.612-12.8-1.576-12.8c-0.872,0,17.709-0.325,17.709-0.325l13.437-13.112
			l-7.332-3.658l-9.725,9.465l-16.188-0.91l-9.869-13.491h-20.741l-21.654,16.16h19.832l1.784,5.821l-5.17,4.868l21.981,0.625
			l3.333,7.917l-24.727-0.913l-1.224-6.107l-15.521-3.36l-8.269-4.557l-18.502,0.155c60.613-44.153,135.118-70.285,215.677-70.285
			c92.799,0,177.657,34.687,242.345,91.705l-4.323,7.787l-16.954,6.639l-7.158,7.76l1.665,9.01l8.726,1.224l5.285,13.15
			l15.026-6.081l2.526,17.617h-4.584l-12.37-1.836l-13.697,2.291l-13.282,18.776l-18.957,2.956l-2.737,16.25l8.022,1.887
			l-2.345,10.456l-18.854-3.788l-17.265,3.788l-3.674,9.622l2.97,20.195l10.155,4.74l17.057-0.103l11.482-1.042l3.542-9.141
			l17.971-23.359l11.799,2.423l11.64-10.534l2.188,8.244l28.645,19.323l-3.49,4.725l-12.917-0.69l4.999,7.031l7.97,1.771
			l9.322-3.893l-0.209-11.211l4.167-2.069l-3.333-3.53l-19.114-10.664l-5.052-14.152h15.911l5.027,5.039l13.749,11.783l0.547,14.271
			l14.191,15.091l5.264-20.69l9.844-5.366l1.797,16.927l9.609,10.535l19.141-0.312c3.724,9.519,7.057,19.192,9.923,29.088
			l-2.082,1.869h-29.272l-17.866-13.269l-18.749,1.811v11.458h-5.935l-6.384-4.557l-32.526-8.228v-21.069l-41.196,3.189
			l-12.787,6.863H569.01l-8.047-0.807l-19.845,11.041v20.741l-40.562,29.284l3.362,12.514h8.241l-2.161,11.913l-5.782,2.136
			l-0.298,31.119l35.039,39.948h15.283l0.912-2.423h27.448l7.914-7.318h15.573l8.544,8.542l23.148,2.396l-3.046,30.835
			l25.782,45.455l-13.592,25.937l0.91,12.188l10.703,10.651v29.351l14.011,18.854v24.424h12.083
			c-56.767,69.74-138.587,118.311-231.625,131.849C630.624,737.588,767.084,584.732,767.084,400
			C767.084,197.265,602.734,32.917,400,32.917z M276.483,241.498l-5.26,5.261h-11.68l1.822-8.008l5.521-0.482l1.121-2.748
			l8.477-1.146V241.498z M279.233,219.766v7.305l-5.521,3.541l-6.823,1.289c0,0,0-10.99,0-12.137h12.343V219.766z M289.635,218.62
			l5.599,3.49l-4.48,3.712l-4.424-3.712L289.635,218.62z M282.189,227.76h0.91l13.946,4.14v7.096h-11.68l-3.176-4.622V227.76z
			 M273.047,208.059l7.538,6.875l-7.538,1.851V208.059z M240.989,209.233l10.535-4.349h14.427v4.349h3.176v-0.002v0.002v7.551H247.2
			l-8.269-2.304L240.989,209.233z M238.96,228.906l8.463-9.14h12.121l-15.573,21.732l-6.393-3.438L238.96,228.906z M227.709,177.175
			l8.699,2.082l-2.968,11.68l-9.375,2.957l-5.926-12.137L227.709,177.175z M205.795,146.33l-18.112,1.145l-3.438-4.14l12.828-3.646
			c0,0,8.02-1.367,8.723-1.367C206.458,138.321,205.795,146.33,205.795,146.33z M192.266,121.172l0.729-2.748h13.085v5.715
			l-3.79,5.012h-18.047v-7.305h0.029v-0.675H192.266z M757.136,315.624c0.521,2.084,0.989,4.167,1.484,6.251l-2.629-4.884
			L757.136,315.624z M724.556,236.026h0.027v0.002l2.29-2.604c3.047,5.911,5.938,11.888,8.621,17.994l-3.829-0.157l-7.109,0.977
			V236.026z M666.82,148.345c6.303,6.668,12.346,13.528,18.126,20.651l-7.188,10.716l-25.209-0.249l-1.56-5.247l15.779-8.006
			L666.82,148.345z"/>
		<path fill="#89C540" d="M63.513,546.951c44.743,102.308,134.777,180.283,244.753,208.577
			C198.417,727.198,108.328,649.174,63.513,546.951z"/>
		<path fill="#89C540" d="M435.909,532.025v-10.7c4.558-0.38,8.909-1.489,12.949-3.196l14.424-18.187l0.116-0.536
			c-6.669,10.072-18.096,16.732-31.054,16.732c-0.603,0-1.188-0.061-1.781-0.092v2.01v3.383v10.586h-13.222v7.132h28.149
			l0.742-7.132H435.909z"/>
		<path fill="#89C540" d="M74.818,229.532c-4.563,8.686-8.786,17.577-12.656,26.656v0.135c3.964-9.315,8.383-18.412,13.098-27.326
			l0.011-0.013c0.005-0.009,0.009-0.018,0.014-0.027l-0.014,0.018c-0.004,0.008-0.009,0.015-0.013,0.023L74.818,229.532z"/>
		<path fill="#89C540" d="M62.162,256.324v0.03c3.965-9.353,8.389-18.43,13.109-27.369l-0.011,0.013
			C70.545,237.912,66.126,247.008,62.162,256.324z"/>
		<path fill="#89C540" d="M75.258,228.998c0.004-0.008,0.008-0.015,0.013-0.023l-0.442,0.538c-0.003,0.007-0.007,0.013-0.011,0.02
			L75.258,228.998z"/>
	</g>
</g>
</svg>
